<?xml version="1.0" encoding="utf-8"?>
<!-- Generator: Adobe Illustrator 22.1.0, SVG Export Plug-In . SVG Version: 6.00 Build 0)  -->
<svg version="1.1" id="Livello_1" xmlns="http://www.w3.org/2000/svg" xmlns:xlink="http://www.w3.org/1999/xlink" x="0px" y="0px"
	 viewBox="0 0 197 44" style="enable-background:new 0 0 197 44;" xml:space="preserve">
<style type="text/css">
	.st0{opacity:0.85;}
	.st1{fill:#FFFFFF;}
	.st2{fill:#B0CA16;}
</style>
<g class="st0">
	<path class="st1" d="M2.9,40.1H1.3v2.5H0.3v-7.4h2.6c1.4,0,2.4,1.1,2.4,2.5C5.3,39,4.2,40.1,2.9,40.1z M2.7,36.1H1.3v3h1.4
		c0.9,0,1.5-0.6,1.5-1.5C4.2,36.8,3.5,36.1,2.7,36.1z"/>
	<path class="st1" d="M8.5,35.2h1.1v7.4H8.5V35.2z"/>
	<path class="st1" d="M18,42.5c-0.4,0.1-0.8,0.2-1.3,0.2c-2.1,0-3.8-1.7-3.8-3.8c0-2.1,1.7-3.8,3.8-3.8c0.5,0,0.9,0.1,1.3,0.2
		c0,0,0,1.2,0,1.2c-0.4-0.2-0.8-0.4-1.3-0.4c-1.4,0-2.6,1.2-2.6,2.8c0,1.5,1.2,2.8,2.6,2.8c0.5,0,0.9-0.1,1.3-0.4V42.5z"/>
	<path class="st1" d="M25.7,42.5c-0.4,0.1-0.8,0.2-1.3,0.2c-2.1,0-3.8-1.7-3.8-3.8c0-2.1,1.7-3.8,3.8-3.8c0.5,0,0.9,0.1,1.3,0.2
		c0,0,0,1.2,0,1.2c-0.4-0.2-0.8-0.4-1.3-0.4c-1.4,0-2.6,1.2-2.6,2.8c0,1.5,1.2,2.8,2.6,2.8c0.5,0,0.9-0.1,1.3-0.4V42.5z"/>
	<path class="st1" d="M32.1,35c2.1,0,3.8,1.7,3.8,3.8c0,2.1-1.7,3.8-3.8,3.8s-3.8-1.7-3.8-3.8C28.3,36.7,30,35,32.1,35z M32.1,41.6
		c1.4,0,2.6-1.2,2.6-2.8c0-1.5-1.2-2.8-2.6-2.8c-1.4,0-2.6,1.2-2.6,2.8C29.5,40.4,30.6,41.6,32.1,41.6z"/>
	<path class="st1" d="M39.1,35.2h1.1v6.3h3v1.1h-4.1V35.2z"/>
	<path class="st1" d="M47.6,40.7l-0.8,1.8h-1.1l3.1-7.5l3.1,7.5h-1.1l-0.8-1.8H47.6z M48.9,37.5L48,39.7h1.7L48.9,37.5z"/>
	<path class="st1" d="M70.4,40.7l-0.8,1.8h-1.1l3.1-7.5l3.1,7.5h-1.1l-0.8-1.8H70.4z M71.6,37.5l-0.9,2.2h1.7L71.6,37.5z"/>
	<path class="st1" d="M80.7,38.3h3.8c0,0.2,0,0.4,0,0.6c0,2.1-1.6,3.8-3.8,3.8c-2.1,0-3.8-1.7-3.8-3.8c0-2.1,1.7-3.8,3.8-3.8
		c1.2,0,2.3,0.6,3,1.5c0,0-0.9,0.7-0.9,0.7c-0.5-0.7-1.3-1.2-2.1-1.2c-1.4,0-2.6,1.2-2.6,2.8c0,1.5,1.2,2.8,2.6,2.8
		c1.5,0,2.6-1,2.6-2.4h-2.7V38.3z"/>
	<path class="st1" d="M87.9,35.2h4.3v1H89V38h3.1v1H89v2.5h3.3v1.1h-4.4V35.2z"/>
	<path class="st1" d="M95.6,35.2h1l3.8,4.7v-4.7h1v7.5L96.6,37v5.6h-1V35.2z"/>
	<path class="st1" d="M104.5,42.5l3-6.4h-2.6v-1h4.3l-3,6.3h3v1.1H104.5z"/>
	<path class="st1" d="M112.5,35.2h1.1v7.4h-1.1V35.2z"/>
	<path class="st1" d="M118.5,40.7l-0.8,1.8h-1.1l3.1-7.5l3.1,7.5h-1.1l-0.8-1.8H118.5z M119.8,37.5l-0.9,2.2h1.7L119.8,37.5z"/>
	<path class="st1" d="M140,35.2h2.6c2,0,3.6,1.7,3.6,3.7c0,2-1.5,3.7-3.6,3.7H140V35.2z M142.5,41.6c1.5,0,2.6-1.2,2.6-2.7
		c0-1.5-1.1-2.7-2.6-2.7h-1.4v5.5H142.5z"/>
	<path class="st1" d="M149.4,35.2h1.1v7.4h-1.1V35.2z"/>
	<path class="st1" d="M157.4,38.3h3.8c0,0.2,0,0.4,0,0.6c0,2.1-1.6,3.8-3.8,3.8c-2.1,0-3.8-1.7-3.8-3.8c0-2.1,1.7-3.8,3.8-3.8
		c1.2,0,2.3,0.6,3,1.5c0,0-0.9,0.7-0.9,0.7c-0.5-0.7-1.3-1.2-2.1-1.2c-1.4,0-2.6,1.2-2.6,2.8c0,1.5,1.2,2.8,2.6,2.8
		c1.5,0,2.6-1,2.6-2.4h-2.7V38.3z"/>
	<path class="st1" d="M164.7,35.2h1.1v7.4h-1.1V35.2z"/>
	<path class="st1" d="M170.8,36.2h-1.8v-1h4.7v1h-1.8v6.4h-1.1V36.2z"/>
	<path class="st1" d="M177.2,40.7l-0.8,1.8h-1.1l3.1-7.5l3.1,7.5h-1.1l-0.8-1.8H177.2z M178.5,37.5l-0.9,2.2h1.7L178.5,37.5z"/>
	<path class="st1" d="M184.6,35.2h1.1v6.3h3v1.1h-4.1V35.2z"/>
	<path class="st1" d="M191.9,35.2h4.3v1H193V38h3.1v1H193v2.5h3.3v1.1h-4.4V35.2z"/>
</g>
<g>
	<path class="st1" d="M17.6,22.8l-2.6-5l8.2-16.1l5.2,26.7h-5L21,16.1L17.6,22.8z"/>
	<path class="st2" d="M14.3,29.2L7.6,16.1L5.2,28.5h-5L5.5,1.8l8.9,17.3l2.6,4.9L14.3,29.2z"/>
	<path class="st1" d="M38.7,2.5h15.4v5H44v5h9.5v4.9H44v6.2h10.3v5H38.7V2.5z"/>
	<path class="st1" d="M69.7,7.6h-6.4V2.5h18.1v5.1h-6.3v20.9h-5.3V7.6z"/>
	<path class="st1" d="M92,2.5h5.3v10.6h10.2V2.5h5.3v26h-5.3V17.7H97.3v10.8H92V2.5z"/>
	<path class="st1" d="M125,2.5h5.3v21h10.6v5H125V2.5z"/>
	<path class="st1" d="M153.1,23.9l-1.9,4.6h-5.6l11.8-26.7l11.8,26.7h-5.6l-1.9-4.6H153.1z M157.4,13l-2.7,6.3h5.3L157.4,13z"/>
	<path class="st1" d="M196.2,20.8c0,4.2-3.6,7.7-7.8,7.7h-12.8v-26h12.6c3.8,0,7,3,7,7c0,2.4-1.4,4-2.7,5.2
		C194.7,15.8,196.2,18,196.2,20.8z M181,12.5h6.1c1.4,0,2.6-1.2,2.6-2.5c0-1.4-1.2-2.5-2.6-2.5H181V12.5z M187.3,23.5
		c1.7,0,3.1-1.4,3.1-3.2c0-1.7-1.4-3.2-3.1-3.2H181v6.3H187.3z"/>
</g>
</svg>
