<?xml version="1.0" encoding="utf-8"?>
<!-- Generator: Adobe Illustrator 22.1.0, SVG Export Plug-In . SVG Version: 6.00 Build 0)  -->
<svg version="1.1" id="Livello_1" xmlns="http://www.w3.org/2000/svg" xmlns:xlink="http://www.w3.org/1999/xlink" x="0px" y="0px"
	 viewBox="0 0 618.7 84.3" style="enable-background:new 0 0 618.7 84.3;" xml:space="preserve">
<style type="text/css">
	.st0{fill:#333333;}
	.st1{fill:#B0CA16;}
</style>
<g>
	<path class="st0" d="M54.6,66.4l-8.2-15.7L72.4,0l16.4,84.3H73.1l-7.5-39.3L54.6,66.4z"/>
	<path class="st1" d="M44.4,86.4L23.3,44.9l-7.5,39.3H0L16.4,0l28,54.7l8.2,15.6L44.4,86.4z"/>
	<path class="st0" d="M121.3,2.1h48.6v15.7h-31.8v15.7h30.1V49h-30.1v19.6h32.5v15.7h-49.3V2.1z"/>
	<path class="st0" d="M219.4,18.2h-20.3V2.1h57v16.1h-19.9v66.1h-16.8V18.2z"/>
	<path class="st0" d="M289.5,2.1h16.8v33.4h32.2V2.1h16.8v82.2h-16.8V50.2h-32.2v34.1h-16.8V2.1z"/>
	<path class="st0" d="M393.7,2.1h16.8v66.4h33.6v15.7h-50.4V2.1z"/>
	<path class="st0" d="M482.7,69.8l-6.1,14.5h-17.7L496.2,0l37.2,84.3h-17.7l-5.9-14.5H482.7z M496.2,35.1l-8.4,19.8h16.8L496.2,35.1
		z"/>
	<path class="st0" d="M618.7,60c0,13.3-11.4,24.3-24.5,24.3h-40.4V2.1h39.9c12.1,0,22.2,9.4,22.2,22c0,7.5-4.4,12.8-8.6,16.4
		C613.8,44.1,618.7,51.2,618.7,60z M570.7,33.6h19.2c4.5,0,8.2-3.7,8.2-8c0-4.4-3.7-8-8.2-8h-19.2V33.6z M590.6,68.5
		c5.4,0,9.8-4.4,9.8-10c0-5.4-4.4-10-9.8-10h-19.9v19.9H590.6z"/>
</g>
</svg>
